<svg width="26" height="19" viewBox="0 0 26 19" fill="none" xmlns="http://www.w3.org/2000/svg">
<path d="M12.9999 14.8437C9.91848 14.8437 7.42411 12.665 7.19458 9.90412L2.93303 6.89569C2.37281 7.53768 1.85728 8.2164 1.44128 8.95858C1.34835 9.1265 1.29993 9.31203 1.29993 9.50019C1.29993 9.68834 1.34835 9.87387 1.44128 10.0418C3.64437 13.9683 8.00586 16.6249 12.9999 16.6249C14.0931 16.6249 15.1477 16.4765 16.1641 16.2368L14.0561 14.7468C13.708 14.8083 13.3544 14.8407 12.9999 14.8437ZM25.7488 16.9997L21.2577 13.8291C22.6219 12.7789 23.744 11.4914 24.5585 10.0414C24.6514 9.8735 24.6998 9.68797 24.6998 9.49981C24.6998 9.31166 24.6514 9.12613 24.5585 8.95821C22.3554 5.03171 17.9939 2.37507 12.9999 2.37507C10.9083 2.37739 8.8507 2.85837 7.01502 3.77408L1.84672 0.125155C1.77932 0.0772498 1.70225 0.0419454 1.61992 0.0212588C1.53758 0.000572325 1.45158 -0.00509081 1.36685 0.00459307C1.28211 0.0142769 1.2003 0.039118 1.12608 0.0776967C1.05185 0.116275 0.986682 0.167836 0.934284 0.229431L0.136818 1.16718C0.0310302 1.29148 -0.0163726 1.44909 0.00503509 1.60532C0.0264428 1.76155 0.114908 1.90362 0.250974 2.00027L24.153 18.8748C24.2204 18.9228 24.2975 18.9581 24.3798 18.9787C24.4622 18.9994 24.5482 19.0051 24.6329 18.9954C24.7176 18.9857 24.7994 18.9609 24.8737 18.9223C24.9479 18.8837 25.0131 18.8322 25.0655 18.7706L25.8633 17.8328C25.9691 17.7085 26.0164 17.5508 25.9949 17.3946C25.9734 17.2384 25.8849 17.0963 25.7488 16.9997ZM18.2852 11.7303L16.6886 10.6029C16.8231 10.2479 16.8944 9.87557 16.8999 9.5C16.9078 8.95014 16.7744 8.40625 16.5105 7.91201C16.2466 7.41777 15.8594 6.98696 15.3801 6.65419C14.9009 6.32142 14.3429 6.09596 13.7509 5.99592C13.1589 5.89588 12.5495 5.92406 11.9717 6.07818C12.2166 6.3814 12.3491 6.74818 12.3499 7.12502C12.3438 7.25043 12.3228 7.37486 12.2873 7.49611L9.29692 5.38498C10.3357 4.59204 11.6461 4.15722 12.9999 4.1563C13.7682 4.15591 14.5291 4.29387 15.2391 4.56227C15.949 4.83068 16.5941 5.22428 17.1374 5.72057C17.6807 6.21685 18.1116 6.80609 18.4054 7.4546C18.6993 8.1031 18.8503 8.79815 18.8499 9.5C18.8499 10.3027 18.6349 11.0508 18.2852 11.7306V11.7303Z" fill="#390A6E"/>
</svg>
