<svg width="330" height="80" viewBox="0 0 330 80" fill="none" xmlns="http://www.w3.org/2000/svg">
<path d="M29.92 20.96C29.92 19.68 30.7067 19.04 32.28 19.04C33.8533 19.04 34.64 19.68 34.64 20.96V48.56C34.64 49.4933 34.1467 50.1733 33.16 50.6H33.2C32.7733 50.7867 32.32 50.9333 31.84 51.04C31.36 51.1467 30.8933 51.2 30.44 51.2C30.0933 51.2 29.7333 51.16 29.36 51.08C28.9867 51.0267 28.6267 50.9333 28.28 50.8C27.96 50.64 27.6533 50.44 27.36 50.2C27.0933 49.9333 26.88 49.6133 26.72 49.24L18.04 27.6L16.96 27.72V49.32C16.96 50.6 16.16 51.24 14.56 51.24C12.9867 51.24 12.2 50.6 12.2 49.32V21.76C12.2 20.6667 12.68 19.9333 13.64 19.56C14.52 19.2133 15.4533 19.04 16.44 19.04C17.1333 19.04 17.8267 19.1867 18.52 19.48C19.24 19.7467 19.7867 20.2667 20.16 21.04L28.8 42.72L29.92 42.6V20.96ZM44.6384 44.6C44.6384 45.24 44.8384 45.84 45.2384 46.4C45.6651 46.96 46.3718 47.24 47.3584 47.24H52.3584C53.3451 47.24 54.0384 47 54.4384 46.52C54.8651 46.0133 55.0784 45.44 55.0784 44.8V44.36C55.0784 43.1067 55.8118 42.48 57.2784 42.48C58.7451 42.48 59.4784 43.1067 59.4784 44.36V44.84C59.4784 45.96 59.2918 46.88 58.9184 47.6C58.5718 48.32 58.0384 48.9467 57.3184 49.48C55.9051 50.4933 54.4918 51 53.0784 51H46.3584C44.9451 51 43.5718 50.4933 42.2384 49.48C41.5984 48.9467 41.1051 48.28 40.7584 47.48C40.4118 46.6533 40.2384 45.7067 40.2384 44.64V33.24C40.2384 31.08 40.9051 29.48 42.2384 28.44C42.9051 27.96 43.5851 27.5867 44.2784 27.32C44.9984 27.0267 45.6918 26.88 46.3584 26.88H53.0784C53.7184 26.88 54.4251 27.0133 55.1984 27.28C55.9718 27.52 56.6918 27.8533 57.3584 28.28C57.9984 28.7333 58.5051 29.36 58.8784 30.16C59.2784 30.96 59.4784 31.9067 59.4784 33V38.4C59.4784 39.0133 59.2918 39.56 58.9184 40.04C58.5718 40.52 57.9184 40.76 56.9584 40.76H48.3184C47.3584 40.76 46.8518 40.1333 46.7984 38.88C46.7984 37.6267 47.3051 37 48.3184 37H55.1184L55.0784 33.28C55.0784 32.6133 54.8651 32.0133 54.4384 31.48C54.0384 30.92 53.3451 30.64 52.3584 30.64H47.3584C46.3718 30.64 45.6651 30.92 45.2384 31.48C44.8384 32.0133 44.6384 32.6133 44.6384 33.28V44.6ZM72.6544 51C71.6944 51 71.1877 50.3733 71.1344 49.12C71.1344 47.8667 71.641 47.24 72.6544 47.24H76.6944C77.681 47.24 78.3744 46.96 78.7744 46.4C79.201 45.84 79.4144 45.24 79.4144 44.6V33.32C79.4144 32.6533 79.201 32.04 78.7744 31.48C78.3744 30.8933 77.6677 30.6267 76.6544 30.68H68.9744V54.72C68.9744 55.9733 68.241 56.6 66.7744 56.6C65.3077 56.6 64.5744 55.96 64.5744 54.68V29.28C64.5744 28.3467 64.8144 27.72 65.2944 27.4C65.7744 27.08 66.361 26.92 67.0544 26.92H77.4144C78.1077 26.92 78.801 27.04 79.4944 27.28C80.2144 27.52 80.9477 27.8533 81.6944 28.28C82.3344 28.7333 82.841 29.3733 83.2144 30.2C83.6144 31 83.8144 31.9467 83.8144 33.04V44.88C83.8144 47.0667 83.1077 48.6267 81.6944 49.56C80.201 50.52 78.7744 51 77.4144 51H72.6544ZM94.8722 51C94.0455 51 93.2589 50.8933 92.5122 50.68C91.7655 50.44 91.0455 50.1067 90.3522 49.68V49.72C89.0455 48.8933 88.3922 47.3733 88.3922 45.16V43.2C88.3922 42.1067 88.5789 41.16 88.9522 40.36C89.3522 39.5333 89.8989 38.88 90.5922 38.4H90.5522C91.2189 37.9467 91.9255 37.6133 92.6722 37.4C93.4189 37.16 94.1389 37.04 94.8322 37.04H103.672V33.32C103.672 32.6533 103.459 32.0533 103.032 31.52C102.632 30.96 101.939 30.68 100.952 30.68H96.2722C95.2589 30.68 94.5522 30.9333 94.1522 31.44C93.7789 31.92 93.5922 32.4933 93.5922 33.16V33.48C93.5922 34.8667 92.8455 35.56 91.3522 35.56C89.8589 35.56 89.1122 34.8667 89.1122 33.48V33.12C89.1122 32.0267 89.2989 31.1067 89.6722 30.36C90.0722 29.6133 90.6055 28.9867 91.2722 28.48H91.2322C91.9255 28.0267 92.6455 27.6533 93.3922 27.36C94.1655 27.0667 94.8989 26.92 95.5922 26.92H101.672C102.339 26.92 103.046 27.0667 103.792 27.36C104.566 27.6533 105.286 28.0267 105.952 28.48H105.912C106.606 28.9867 107.139 29.6533 107.512 30.48C107.886 31.28 108.072 32.2133 108.072 33.28V49.32C108.072 50.6 107.339 51.24 105.872 51.24C105.579 51.24 105.299 51.2267 105.032 51.2C104.792 51.1733 104.566 51.1067 104.352 51C104.166 50.8667 104.006 50.6933 103.872 50.48C103.766 50.24 103.712 49.9333 103.712 49.56L103.672 40.8H95.5922C95.0055 40.8 94.5522 40.8667 94.2322 41C93.9122 41.1333 93.6589 41.3467 93.4722 41.64C93.2589 42.0933 93.0989 42.4533 92.9922 42.72C92.9122 42.96 92.8722 43.24 92.8722 43.56V45.12C92.8722 45.8133 93.0722 46.3467 93.4722 46.72C93.8989 47.0667 94.6189 47.24 95.6322 47.24H100.112C101.099 47.24 101.592 47.8667 101.592 49.12C101.592 49.6533 101.472 50.1067 101.232 50.48C100.992 50.8267 100.619 51 100.112 51H94.8722ZM117.806 49.44C117.806 50.6933 117.073 51.32 115.606 51.32C114.113 51.32 113.366 50.6933 113.366 49.44V20.76C113.366 19.5067 114.113 18.88 115.606 18.88C117.073 18.88 117.806 19.5067 117.806 20.76V49.44Z" fill="black"/>
<rect x="124" y="11" width="189" height="47" rx="10" fill="black"/>
<path d="M140.472 49.038C139.535 49.038 138.901 48.7973 138.572 48.316C138.243 47.8347 138.078 47.3027 138.078 46.72V21.108C138.078 20.5253 138.243 20.006 138.572 19.55C138.901 19.0687 139.535 18.828 140.472 18.828H153.696C154.633 18.828 155.127 19.4613 155.178 20.728C155.229 22.02 154.735 22.666 153.696 22.666H142.562V45.2H154.38C155.317 45.2 155.799 45.8207 155.824 47.062C155.875 48.3793 155.393 49.038 154.38 49.038H140.472ZM152.29 33.306C152.29 34.1927 151.973 34.94 151.34 35.548C150.732 36.156 149.985 36.46 149.098 36.46C148.237 36.46 147.502 36.156 146.894 35.548C146.286 34.94 145.982 34.1927 145.982 33.306C145.982 32.4193 146.286 31.672 146.894 31.064C147.502 30.456 148.237 30.152 149.098 30.152C149.985 30.152 150.732 30.456 151.34 31.064C151.973 31.672 152.29 32.4193 152.29 33.306ZM169.055 37.372L175.439 46.378C175.616 46.6313 175.705 46.91 175.705 47.214C175.705 47.746 175.325 48.278 174.565 48.81C174.083 49.1393 173.627 49.304 173.197 49.304C172.943 49.304 172.677 49.2153 172.399 49.038C172.145 48.8607 171.905 48.6327 171.677 48.354L166.471 41.02C166.091 41.552 165.673 42.1347 165.217 42.768C164.786 43.4013 164.343 44.0473 163.887 44.706C163.431 45.3393 162.975 45.9727 162.519 46.606C162.088 47.2393 161.683 47.822 161.303 48.354C160.821 48.9873 160.302 49.304 159.745 49.304C159.263 49.304 158.807 49.1393 158.377 48.81C158.022 48.5567 157.743 48.316 157.541 48.088C157.363 47.8347 157.275 47.556 157.275 47.252C157.275 46.948 157.376 46.6567 157.579 46.378L163.887 37.372C162.949 36.0293 161.961 34.6233 160.923 33.154C159.884 31.6847 158.896 30.266 157.959 28.898C157.857 28.7207 157.756 28.5307 157.655 28.328C157.579 28.1 157.541 27.9227 157.541 27.796C157.541 27.264 157.895 26.77 158.605 26.314H158.567C158.82 26.1873 159.048 26.086 159.251 26.01C159.479 25.9087 159.694 25.858 159.897 25.858C160.581 25.858 161.176 26.2253 161.683 26.96L166.471 33.762L171.259 26.96C171.791 26.2253 172.386 25.858 173.045 25.858C173.273 25.858 173.488 25.9087 173.691 26.01C173.893 26.086 174.121 26.1873 174.375 26.314H174.337C175.071 26.77 175.439 27.264 175.439 27.796C175.439 28.1 175.287 28.4673 174.983 28.898L169.055 37.372ZM196.982 42.958C196.982 45.0353 196.298 46.568 194.93 47.556C193.587 48.5187 192.245 49 190.902 49H184.518C183.175 49 181.871 48.5187 180.604 47.556C179.996 47.0493 179.527 46.416 179.198 45.656C178.869 44.8707 178.704 43.9713 178.704 42.958V32.128C178.704 30.076 179.337 28.556 180.604 27.568C181.237 27.112 181.883 26.7573 182.542 26.504C183.226 26.2253 183.885 26.086 184.518 26.086H190.902C191.51 26.086 192.181 26.2127 192.916 26.466C193.651 26.694 194.335 27.0107 194.968 27.416C195.576 27.8467 196.057 28.442 196.412 29.202C196.792 29.962 196.982 30.8613 196.982 31.9V33.8C196.982 35.016 196.285 35.624 194.892 35.624C193.499 35.624 192.802 35.016 192.802 33.8V32.166C192.802 31.5327 192.599 30.9627 192.194 30.456C191.814 29.924 191.155 29.658 190.218 29.658H185.468C184.531 29.658 183.859 29.924 183.454 30.456C183.074 30.9627 182.884 31.5327 182.884 32.166V42.92C182.884 43.528 183.074 44.098 183.454 44.63C183.859 45.162 184.531 45.428 185.468 45.428H190.218C191.155 45.428 191.814 45.162 192.194 44.63C192.599 44.098 192.802 43.528 192.802 42.92V41.172C192.802 39.9813 193.499 39.386 194.892 39.386C196.285 39.386 196.982 39.9813 196.982 41.172V42.958ZM207.487 49C206.701 49 205.954 48.8987 205.245 48.696C204.535 48.468 203.851 48.1513 203.193 47.746V47.784C201.951 46.9987 201.331 45.5547 201.331 43.452V41.59C201.331 40.5513 201.508 39.652 201.863 38.892C202.243 38.1067 202.762 37.486 203.421 37.03H203.383C204.016 36.5993 204.687 36.2827 205.397 36.08C206.106 35.852 206.79 35.738 207.449 35.738H215.847V32.204C215.847 31.5707 215.644 31.0007 215.239 30.494C214.859 29.962 214.2 29.696 213.263 29.696H208.817C207.854 29.696 207.183 29.9367 206.803 30.418C206.448 30.874 206.271 31.4187 206.271 32.052V32.356C206.271 33.6733 205.561 34.332 204.143 34.332C202.724 34.332 202.015 33.6733 202.015 32.356V32.014C202.015 30.9753 202.192 30.1013 202.547 29.392C202.927 28.6827 203.433 28.0873 204.067 27.606H204.029C204.687 27.1753 205.371 26.8207 206.081 26.542C206.815 26.2633 207.512 26.124 208.171 26.124H213.947C214.58 26.124 215.251 26.2633 215.961 26.542C216.695 26.8207 217.379 27.1753 218.013 27.606H217.975C218.633 28.0873 219.14 28.7207 219.495 29.506C219.849 30.266 220.027 31.1527 220.027 32.166V47.404C220.027 48.62 219.33 49.228 217.937 49.228C217.658 49.228 217.392 49.2153 217.139 49.19C216.911 49.1647 216.695 49.1013 216.493 49C216.315 48.8733 216.163 48.7087 216.037 48.506C215.935 48.278 215.885 47.9867 215.885 47.632L215.847 39.31H208.171C207.613 39.31 207.183 39.3733 206.879 39.5C206.575 39.6267 206.334 39.8293 206.157 40.108C205.954 40.5387 205.802 40.8807 205.701 41.134C205.625 41.362 205.587 41.628 205.587 41.932V43.414C205.587 44.0727 205.777 44.5793 206.157 44.934C206.562 45.2633 207.246 45.428 208.209 45.428H212.465C213.402 45.428 213.871 46.0233 213.871 47.214C213.871 47.7207 213.757 48.1513 213.529 48.506C213.301 48.8353 212.946 49 212.465 49H207.487ZM229.274 47.518C229.274 48.7087 228.577 49.304 227.184 49.304C225.765 49.304 225.056 48.7087 225.056 47.518V20.272C225.056 19.0813 225.765 18.486 227.184 18.486C228.577 18.486 229.274 19.0813 229.274 20.272V47.518ZM238.81 47.404C238.81 48.62 238.114 49.228 236.72 49.228C235.302 49.228 234.592 48.62 234.592 47.404V27.796C234.592 26.58 235.302 25.972 236.72 25.972C238.114 25.972 238.81 26.58 238.81 27.796V47.404ZM239.608 21.184C239.608 21.9947 239.33 22.6787 238.772 23.236C238.215 23.7933 237.531 24.072 236.72 24.072C235.91 24.072 235.213 23.7933 234.63 23.236C234.073 22.6787 233.794 21.9947 233.794 21.184C233.794 20.348 234.073 19.6513 234.63 19.094C235.213 18.5367 235.91 18.258 236.72 18.258C237.531 18.258 238.215 18.5367 238.772 19.094C239.33 19.6513 239.608 20.348 239.608 21.184ZM248.233 47.404C248.233 48.012 248.017 48.468 247.587 48.772C247.156 49.076 246.687 49.228 246.181 49.228C244.787 49.228 244.091 48.62 244.091 47.404V20.424C244.091 19.208 244.787 18.6 246.181 18.6C247.574 18.6 248.271 19.208 248.271 20.424V26.124H256.289C257.581 26.124 258.923 26.6053 260.317 27.568C261.685 28.5307 262.369 30.0507 262.369 32.128V43.452C262.369 45.5547 261.748 46.9987 260.507 47.784C259.265 48.5947 257.847 49 256.251 49H251.767C250.855 49 250.373 48.4047 250.323 47.214C250.323 46.0233 250.804 45.428 251.767 45.428H255.567C256.504 45.428 257.175 45.2633 257.581 44.934C257.986 44.5793 258.189 44.0727 258.189 43.414V32.47C258.189 31.8113 257.986 31.178 257.581 30.57L257.619 30.608C257.289 30 256.618 29.696 255.605 29.696H248.271L248.233 47.404ZM271.204 42.92C271.204 43.528 271.394 44.098 271.774 44.63C272.18 45.162 272.851 45.428 273.788 45.428H278.538C279.476 45.428 280.134 45.2 280.514 44.744C280.92 44.2627 281.122 43.718 281.122 43.11V42.692C281.122 41.5013 281.819 40.906 283.212 40.906C284.606 40.906 285.302 41.5013 285.302 42.692V43.148C285.302 44.212 285.125 45.086 284.77 45.77C284.441 46.454 283.934 47.0493 283.25 47.556C281.908 48.5187 280.565 49 279.222 49H272.838C271.496 49 270.191 48.5187 268.924 47.556C268.316 47.0493 267.848 46.416 267.518 45.656C267.189 44.8707 267.024 43.9713 267.024 42.958V32.128C267.024 30.076 267.658 28.556 268.924 27.568C269.558 27.112 270.204 26.7573 270.862 26.504C271.546 26.2253 272.205 26.086 272.838 26.086H279.222C279.83 26.086 280.502 26.2127 281.236 26.466C281.971 26.694 282.655 27.0107 283.288 27.416C283.896 27.8467 284.378 28.442 284.732 29.202C285.112 29.962 285.302 30.8613 285.302 31.9V37.03C285.302 37.6127 285.125 38.132 284.77 38.588C284.441 39.044 283.82 39.272 282.908 39.272H274.7C273.788 39.272 273.307 38.6767 273.256 37.486C273.256 36.2953 273.738 35.7 274.7 35.7H281.16L281.122 32.166C281.122 31.5327 280.92 30.9627 280.514 30.456C280.134 29.924 279.476 29.658 278.538 29.658H273.788C272.851 29.658 272.18 29.924 271.774 30.456C271.394 30.9627 271.204 31.5327 271.204 32.166V42.92ZM294.247 47.404C294.247 48.62 293.551 49.228 292.157 49.228C290.713 49.228 289.991 48.62 289.991 47.404V31.672C289.991 29.5947 290.612 28.1507 291.853 27.34C293.095 26.5293 294.526 26.124 296.147 26.124H300.479C301.417 26.124 301.885 26.7193 301.885 27.91C301.936 29.1007 301.467 29.696 300.479 29.696H296.451C295.539 29.696 294.944 29.8733 294.665 30.228C294.387 30.5827 294.247 31.0767 294.247 31.71V47.404Z" fill="#F1F1F1"/>
</svg>
